<svg id="kitchen" xmlns="http://www.w3.org/2000/svg" width="15.65" height="15.8" viewBox="0 0 15.65 15.8">
  <g id="Outlined">
    <g id="Places">
      <g id="Outlined-_-Places-_-kitchen" data-name="Outlined-/-Places-/-kitchen">
        <g id="Group_37" data-name="Group 37">
          <path id="Path" d="M0,0H15.65V15.8H0Z" fill="none" fill-rule="evenodd"/>
          <path id="_-Icon-Color" data-name="🔹-Icon-Color" d="M6.363,3.905H7.545V5.811H6.363Zm0,4.446H7.545v3.176H6.363Zm5.909-6.345L5.182,2A1.228,1.228,0,0,0,4,3.27V13.432A1.232,1.232,0,0,0,5.182,14.7h7.09a1.232,1.232,0,0,0,1.182-1.27V3.27A1.222,1.222,0,0,0,12.272,2.006Zm0,11.426H5.182V7.7h7.09Zm0-6.986H5.182V3.27h7.09Z" transform="translate(-0.902 -0.451)" fill="#1d1d1d" fill-rule="evenodd"/>
        </g>
      </g>
    </g>
  </g>
</svg>
