<svg id="bathroom" xmlns="http://www.w3.org/2000/svg" width="13.412" height="13.412" viewBox="0 0 13.412 13.412">
  <g id="Group_4" data-name="Group 4" transform="translate(7.466 10.792)">
    <g id="Group_3" data-name="Group 3">
      <path id="Path_210" data-name="Path 210" d="M285.447,412.077a.262.262,0,1,0,.077.185A.264.264,0,0,0,285.447,412.077Z" transform="translate(-285 -412)"/>
    </g>
  </g>
  <g id="Group_6" data-name="Group 6" transform="translate(4.752 8.959)">
    <g id="Group_5" data-name="Group 5">
      <path id="Path_211" data-name="Path 211" d="M181.867,342.077a.262.262,0,1,0,.077.185A.264.264,0,0,0,181.867,342.077Z" transform="translate(-181.42 -342)"/>
    </g>
  </g>
  <g id="Group_8" data-name="Group 8">
    <g id="Group_7" data-name="Group 7">
      <path id="Path_212" data-name="Path 212" d="M12.574,11.735a.516.516,0,0,0-.515.515.262.262,0,0,0,.524.009.314.314,0,0,1-.009.629h-.166a.725.725,0,0,1-.516-.214l-.7-.7a2.525,2.525,0,0,0,1.041-1.319l.842-2.466a.995.995,0,0,0-.656-1.743H6.863a.261.261,0,0,0,.105-.21V6.1a.262.262,0,1,0-.524,0v.131a.261.261,0,0,0,.105.21H1.1v-5A.918.918,0,0,1,2.017.524h3.51a.918.918,0,0,1,.887.683A1.521,1.521,0,0,0,4.977,2.724a.262.262,0,0,0,.262.262H8.173a.262.262,0,0,0,.262-.262A1.521,1.521,0,0,0,6.948,1.206,1.443,1.443,0,0,0,5.527,0H2.017A1.442,1.442,0,0,0,.576,1.441v5.1a.994.994,0,0,0-.237,1.65l.842,2.466a2.525,2.525,0,0,0,1.041,1.319l-.7.7A.725.725,0,0,1,1,12.888H.838a.314.314,0,0,1-.009-.629.262.262,0,0,0,.524-.009.516.516,0,0,0-.515-.515.838.838,0,0,0,0,1.676H1a1.245,1.245,0,0,0,.886-.367l.829-.829a2.524,2.524,0,0,0,.854.149H9.838a2.524,2.524,0,0,0,.854-.149l.829.829a1.245,1.245,0,0,0,.886.367h.166a.838.838,0,0,0,0-1.676ZM6.916,1.729a1,1,0,0,1,.96.733H5.536a1,1,0,0,1,.96-.733ZM.524,7.439A.472.472,0,0,1,1,6.968H12.417a.472.472,0,0,1,0,.943H1A.472.472,0,0,1,.524,7.439Zm9.314,4.4H3.574a2,2,0,0,1-1.9-1.357l-.342-1H3.971a.262.262,0,1,0,0-.524H1.156L.977,8.434H12.435l-.7,2.049a2.008,2.008,0,0,1-.136.309H8.771a.262.262,0,1,0,0,.524h2.418A2,2,0,0,1,9.838,11.84Z"/>
    </g>
  </g>
  <g id="Group_10" data-name="Group 10" transform="translate(7.544 4.888)">
    <g id="Group_9" data-name="Group 9">
      <path id="Path_213" data-name="Path 213" d="M288.541,186.926l-.026-.128a.262.262,0,0,0-.513.1l.026.128a.262.262,0,1,0,.513-.1Z" transform="translate(-287.996 -186.588)"/>
    </g>
  </g>
  <g id="Group_12" data-name="Group 12" transform="translate(7.361 3.989)">
    <g id="Group_11" data-name="Group 11">
      <path id="Path_214" data-name="Path 214" d="M281.55,152.63l-.026-.128a.262.262,0,1,0-.513.1l.026.128a.262.262,0,1,0,.513-.1Z" transform="translate(-281.006 -152.292)"/>
    </g>
  </g>
  <g id="Group_14" data-name="Group 14" transform="translate(7.178 3.091)">
    <g id="Group_13" data-name="Group 13">
      <path id="Path_215" data-name="Path 215" d="M274.559,118.338l-.026-.128a.262.262,0,1,0-.513.1l.026.128a.262.262,0,0,0,.256.21.266.266,0,0,0,.053-.005A.262.262,0,0,0,274.559,118.338Z" transform="translate(-274.014 -118)"/>
    </g>
  </g>
  <g id="Group_16" data-name="Group 16" transform="translate(7.727 5.786)">
    <g id="Group_15" data-name="Group 15">
      <path id="Path_216" data-name="Path 216" d="M295.533,221.221l-.026-.128a.262.262,0,1,0-.513.1l.026.128a.262.262,0,1,0,.513-.1Z" transform="translate(-294.988 -220.883)"/>
    </g>
  </g>
  <g id="Group_18" data-name="Group 18" transform="translate(6.444 4.925)">
    <g id="Group_17" data-name="Group 17">
      <path id="Path_217" data-name="Path 217" d="M246.262,188a.262.262,0,0,0-.262.262v.131a.262.262,0,0,0,.524,0v-.131A.262.262,0,0,0,246.262,188Z" transform="translate(-246 -188)"/>
    </g>
  </g>
  <g id="Group_20" data-name="Group 20" transform="translate(6.444 3.091)">
    <g id="Group_19" data-name="Group 19">
      <path id="Path_218" data-name="Path 218" d="M246.262,118a.262.262,0,0,0-.262.262v.131a.262.262,0,0,0,.524,0v-.131A.262.262,0,0,0,246.262,118Z" transform="translate(-246 -118)"/>
    </g>
  </g>
  <g id="Group_22" data-name="Group 22" transform="translate(6.444 4.008)">
    <g id="Group_21" data-name="Group 21">
      <path id="Path_219" data-name="Path 219" d="M246.262,153a.262.262,0,0,0-.262.262v.131a.262.262,0,0,0,.524,0v-.131A.262.262,0,0,0,246.262,153Z" transform="translate(-246 -153)"/>
    </g>
  </g>
  <g id="Group_24" data-name="Group 24" transform="translate(5.684 3.091)">
    <g id="Group_23" data-name="Group 23">
      <path id="Path_220" data-name="Path 220" d="M217.325,118a.262.262,0,0,0-.309.2l-.026.128a.262.262,0,1,0,.513.1l.026-.128A.262.262,0,0,0,217.325,118Z" transform="translate(-216.984 -117.998)"/>
    </g>
  </g>
  <g id="Group_26" data-name="Group 26" transform="translate(5.501 3.989)">
    <g id="Group_25" data-name="Group 25">
      <path id="Path_221" data-name="Path 221" d="M210.333,152.3a.262.262,0,0,0-.309.2l-.026.128a.262.262,0,1,0,.513.1l.026-.128A.262.262,0,0,0,210.333,152.3Z" transform="translate(-209.993 -152.292)"/>
    </g>
  </g>
  <g id="Group_28" data-name="Group 28" transform="translate(5.134 5.786)">
    <g id="Group_27" data-name="Group 27">
      <path id="Path_222" data-name="Path 222" d="M196.349,220.887a.262.262,0,0,0-.309.2l-.026.128a.262.262,0,1,0,.513.1l.026-.128A.262.262,0,0,0,196.349,220.887Z" transform="translate(-196.008 -220.882)"/>
    </g>
  </g>
  <g id="Group_30" data-name="Group 30" transform="translate(5.318 4.888)">
    <g id="Group_29" data-name="Group 29">
      <path id="Path_223" data-name="Path 223" d="M203.342,186.593a.262.262,0,0,0-.309.2l-.026.128a.262.262,0,1,0,.513.1l.026-.128A.262.262,0,0,0,203.342,186.593Z" transform="translate(-203.001 -186.588)"/>
    </g>
  </g>
</svg>
