<svg xmlns="http://www.w3.org/2000/svg" xmlns:xlink="http://www.w3.org/1999/xlink" width="118" height="191.133" viewBox="0 0 118 191.133">
  <defs>
    <clipPath id="clip-path">
      <rect id="bg_overlay" width="118" height="191.133" fill="rgba(36,36,36,0.24)"/>
    </clipPath>
  </defs>
  <g id="Mask_Group_1" data-name="Mask Group 1" clip-path="url(#clip-path)">
    <g id="house" transform="translate(0 51.863)">
      <path id="Path_1" data-name="Path 1" d="M86.549,255.574H63.422a4.433,4.433,0,0,1-4.625-4.212v-29.79l27.752-16.849Zm55.5,0H165.18a4.433,4.433,0,0,0,4.625-4.212v-29.79l-27.752-16.849Z" transform="translate(-55.292 -168.167)" fill="#ccc"/>
      <path id="Path_2" data-name="Path 2" d="M60.069,251.336v-29.79l26.48-16.08v-.779L58.8,221.535v29.8a4.433,4.433,0,0,0,4.625,4.212h1.272A4.433,4.433,0,0,1,60.069,251.336Z" transform="translate(-55.292 -168.141)" fill="#e6e6e6"/>
      <path id="Path_3" data-name="Path 3" d="M330,214.011c20.814,12.636,19.658,12.194,21.138,12.194v-4.633l-27.752-16.849v50.851h23.127a4.433,4.433,0,0,0,4.625-4.212V249.4a4.433,4.433,0,0,1-4.625,4.212H330.852a3.836,3.836,0,0,1-4-3.633V215.559a1.825,1.825,0,0,1,1.061-1.635A2.194,2.194,0,0,1,330,214.011Z" transform="translate(-236.621 -168.167)" fill="#b3b3b3"/>
      <path id="Path_4" data-name="Path 4" d="M58.8,221.571V226.2a3.717,3.717,0,0,0,1.92-.527l19.218-11.668a2.194,2.194,0,0,1,2.084-.087,1.825,1.825,0,0,1,1.061,1.635v33.329a4.976,4.976,0,0,1-5.192,4.728H63.422A4.433,4.433,0,0,1,58.8,249.4v1.959a4.433,4.433,0,0,0,4.625,4.212H86.549V204.723Z" transform="translate(-55.292 -168.167)" fill="#b3b3b3"/>
      <path id="Path_5" data-name="Path 5" d="M160.253,174.379,106.668,141.84,53.083,174.379c-3.816,2.317-7.667-2.938-3.851-5.265l55.5-33.7a3.755,3.755,0,0,1,3.851,0l55.5,33.7C167.884,171.42,164.08,176.7,160.253,174.379Z" transform="translate(-47.659 -118.342)" fill="#d2423f"/>
      <path id="Path_6" data-name="Path 6" d="M104.65,136.248a3.755,3.755,0,0,1,3.851,0c59.748,36.277,57,33.9,57.042,36.267a3.029,3.029,0,0,0-1.422-3.4l-55.5-33.7a3.755,3.755,0,0,0-3.851,0C44.59,171.946,47.712,169.345,47.712,171.8,48.2,170.093,44.868,172.547,104.65,136.248Z" transform="translate(-47.677 -118.342)" fill="#dd6966"/>
      <path id="Path_7" data-name="Path 7" d="M165.64,185.509a3.243,3.243,0,0,1-2.071,2.311,3.762,3.762,0,0,1-3.26-.289c-23.508-14.29-22.352-11.91-22.352-19.976l-3.469-2.106v6.4L106.737,155,78.985,171.851v-6.4l-3.469,2.106c0,2.748.543,6.076-3.087,8.277l-19.276,11.7a3.762,3.762,0,0,1-3.26.289,3.243,3.243,0,0,1-2.071-2.311,3.044,3.044,0,0,0,1.489,3.225,3.755,3.755,0,0,0,3.842,0l22.364-13.584,31.221-18.955,53.585,32.528a3.755,3.755,0,0,0,3.842,0,3.044,3.044,0,0,0,1.489-3.225Z" transform="translate(-47.728 -132.695)" fill="#ba3b38"/>
      <path id="Path_8" data-name="Path 8" d="M93.771,301.207H86.833A2.217,2.217,0,0,1,84.52,299.1v-6.318a2.217,2.217,0,0,1,2.313-2.106h6.938a2.217,2.217,0,0,1,2.313,2.106V299.1A2.217,2.217,0,0,1,93.771,301.207ZM179.34,299.1v-6.318a2.217,2.217,0,0,0-2.313-2.106h-6.938a2.217,2.217,0,0,0-2.313,2.106V299.1a2.217,2.217,0,0,0,2.313,2.106h6.938A2.217,2.217,0,0,0,179.34,299.1Z" transform="translate(-72.921 -229.49)" fill="#2175aa"/>
      <path id="Path_9" data-name="Path 9" d="M84.763,299.322V293a2.217,2.217,0,0,1,2.313-2.106h6.938a2.448,2.448,0,0,1,1.5.516,2.412,2.412,0,0,0-1.746-.737H86.833a2.217,2.217,0,0,0-2.313,2.106V299.1a2.034,2.034,0,0,0,.809,1.59A2,2,0,0,1,84.763,299.322Z" transform="translate(-72.921 -229.49)" fill="#1d6694"/>
      <path id="Path_10" data-name="Path 10" d="M349.242,293a2.217,2.217,0,0,1,2.313-2.106h6.938a2.448,2.448,0,0,1,1.5.516,2.412,2.412,0,0,0-1.746-.737h-6.938A2.217,2.217,0,0,0,349,292.782c0,6.213-.347,7,.809,7.908C348.918,299.753,349.242,299,349.242,293Z" transform="translate(-254.144 -229.49)" fill="#1d6694"/>
      <path id="Path_11" data-name="Path 11" d="M202.5,105.044,174.744,88.2l-27.752,16.849v67.394h55.5Z" transform="translate(-115.735 -85.031)" fill="#f2f2f2"/>
      <path id="Path_12" data-name="Path 12" d="M175.9,88.9l-1.156-.706-27.752,16.849v67.394H149.3V105.044Z" transform="translate(-115.735 -85.031)" fill="#f7f7f7"/>
      <path id="Path_13" data-name="Path 13" d="M174.744,88.2l-27.752,16.849v5.265a3.717,3.717,0,0,0,1.92-.527l21.97-13.342a7.509,7.509,0,0,1,7.7,0l18.5,11.236a6.188,6.188,0,0,1,3.087,5.265V166.12a4.733,4.733,0,0,1-4.764,4.518l-48.416,1.8h55.5V105.044Z" transform="translate(-115.735 -85.031)" fill="#e6e6e6"/>
      <path id="Path_14" data-name="Path 14" d="M194.863,100.326c-1.48,0,.3.811-27.752-16.217L141.279,99.8c-3.816,2.317-7.667-2.938-3.851-5.265L165.18,77.686a3.755,3.755,0,0,1,3.851,0l27.752,16.849a3.023,3.023,0,0,1,1.4,3.545A3.445,3.445,0,0,1,194.863,100.326Z" transform="translate(-108.102 -77.154)" fill="#d2423f"/>
      <path id="Path_15" data-name="Path 15" d="M194.955,113.084c-1.48,0,.3.811-27.752-16.217l-25.833,15.68a3.763,3.763,0,0,1-3.229.289,3.252,3.252,0,0,1-2.079-2.268,3.036,3.036,0,0,0,1.445,3.263,3.754,3.754,0,0,0,3.863.023L167.2,98.184c28.134,17.07,26.307,16.206,27.752,16.206a3.608,3.608,0,0,0,2.7-1.175,2.95,2.95,0,0,0,.692-2.648A3.407,3.407,0,0,1,194.955,113.084Z" transform="translate(-108.194 -91.219)" fill="#ba3b38"/>
      <path id="Path_16" data-name="Path 16" d="M165.286,78.739a3.755,3.755,0,0,1,3.851,0c29.868,18.133,28.908,17.059,29.244,18.955a3.048,3.048,0,0,0-1.492-3.159L169.137,77.686a3.755,3.755,0,0,0-3.851,0L137.534,94.534a3.048,3.048,0,0,0-1.492,3.159C136.378,95.819,135.349,96.914,165.286,78.739Z" transform="translate(-108.197 -77.154)" fill="#dd6966"/>
      <path id="Path_17" data-name="Path 17" d="M208.1,315.738h13.876a2.217,2.217,0,0,1,2.313,2.106v16.933h-18.5V317.844A2.217,2.217,0,0,1,208.1,315.738Z" transform="translate(-156.031 -247.37)" fill="#4d91bb"/>
      <path id="Path_18" data-name="Path 18" d="M205.788,378.112v.684h18.5v-1.358Z" transform="translate(-156.031 -291.39)" fill="#2175aa"/>
      <path id="Path_19" data-name="Path 19" d="M206.482,318.487a2.217,2.217,0,0,1,2.313-2.106h13.876a2.48,2.48,0,0,1,1.249.337,2.373,2.373,0,0,0-1.943-.979H208.1a2.217,2.217,0,0,0-2.313,2.106v16.933h.694Z" transform="translate(-156.031 -247.37)" fill="#2175aa"/>
      <path id="Path_20" data-name="Path 20" d="M195.3,193.106h-9.251A2.217,2.217,0,0,1,183.74,191v-8.424a2.217,2.217,0,0,1,2.313-2.106H195.3a2.217,2.217,0,0,1,2.313,2.106V191A2.217,2.217,0,0,1,195.3,193.106Zm2.313,14.743v-8.424a2.217,2.217,0,0,0-2.313-2.106h-9.251a2.217,2.217,0,0,0-2.313,2.106v8.424a2.217,2.217,0,0,0,2.313,2.106H195.3A2.217,2.217,0,0,0,197.616,207.848Zm18.5-16.217v-8.424A2.217,2.217,0,0,0,213.8,181.1h-9.251a2.217,2.217,0,0,0-2.313,2.106v8.424a2.217,2.217,0,0,0,2.313,2.106H213.8A2.217,2.217,0,0,0,216.117,191.631Zm0,16.217v-8.424a2.217,2.217,0,0,0-2.313-2.106h-9.251a2.217,2.217,0,0,0-2.313,2.106v8.424a2.217,2.217,0,0,0,2.313,2.106H213.8A2.217,2.217,0,0,0,216.117,207.848Z" transform="translate(-140.92 -150.864)" fill="#4d91bb"/>
      <path id="Path_21" data-name="Path 21" d="M184.642,192.663a1.989,1.989,0,0,1-.486-1.285v-8.424a2.217,2.217,0,0,1,2.313-2.106h9.251a2.461,2.461,0,0,1,1.411.442,2.4,2.4,0,0,0-1.827-.821h-9.251a2.217,2.217,0,0,0-2.313,2.106V191A2.046,2.046,0,0,0,184.642,192.663Z" transform="translate(-140.92 -150.864)" fill="#2175aa"/>
      <path id="Path_22" data-name="Path 22" d="M243.438,194.868a1.989,1.989,0,0,1-.486-1.285v-8.424a2.217,2.217,0,0,1,2.313-2.106h9.251a2.461,2.461,0,0,1,1.411.442,2.4,2.4,0,0,0-1.827-.821h-9.251a2.217,2.217,0,0,0-2.313,2.106V193.2A2.046,2.046,0,0,0,243.438,194.868Z" transform="translate(-181.215 -152.437)" fill="#2175aa"/>
      <path id="Path_23" data-name="Path 23" d="M184.156,250.175v-8.424a2.217,2.217,0,0,1,2.313-2.106h9.251a2.462,2.462,0,0,1,1.411.442,2.4,2.4,0,0,0-1.827-.821h-9.251a2.217,2.217,0,0,0-2.313,2.106V249.8a2.046,2.046,0,0,0,.9,1.664,1.989,1.989,0,0,1-.486-1.285Z" transform="translate(-140.92 -192.812)" fill="#2175aa"/>
      <path id="Path_24" data-name="Path 24" d="M242.953,250.175v-8.424a2.217,2.217,0,0,1,2.313-2.106h9.251a2.462,2.462,0,0,1,1.411.442,2.4,2.4,0,0,0-1.827-.821h-9.251a2.217,2.217,0,0,0-2.313,2.106V249.8a2.046,2.046,0,0,0,.9,1.664A1.989,1.989,0,0,1,242.953,250.175Z" transform="translate(-181.215 -192.812)" fill="#2175aa"/>
    </g>
  </g>
</svg>
